<svg xmlns="http://www.w3.org/2000/svg" viewBox="0 0 40 40"><defs><style>.cls-1{fill:#000}</style></defs><g id="Capa_2" data-name="Capa 2"><g id="Layer_1" data-name="Layer 1"><path class="cls-1" d="M29.37 8.63a2.08 2.08 0 102.07 2.07 2.08 2.08 0 00-2.07-2.07zm-9.22 2.66A8.71 8.71 0 1028.86 20a8.73 8.73 0 00-8.71-8.71zm0 14.29A5.58 5.58 0 1125.73 20a5.59 5.59 0 01-5.58 5.58z"/><path class="cls-1" d="M27.06 37.69H12.94A10.64 10.64 0 012.31 27.06V12.94A10.64 10.64 0 0112.94 2.31h14.12a10.64 10.64 0 0110.63 10.63v14.12a10.64 10.64 0 01-10.63 10.63zm-14.12-32a7.3 7.3 0 00-7.3 7.3v14.07a7.3 7.3 0 007.3 7.3h14.12a7.3 7.3 0 007.3-7.3V12.94a7.3 7.3 0 00-7.3-7.3z"/><path fill="none" d="M0 0h40v40H0z"/></g></g></svg>