<svg xmlns="http://www.w3.org/2000/svg" viewBox="0 0 40 40"><defs><style>.cls-1{fill:#fff;}.cls-2{fill:none;}</style></defs><g id="Capa_2" data-name="Capa 2"><g id="Layer_1" data-name="Layer 1"><path class="cls-1" d="M29.37,8.63a2.08,2.08,0,1,0,2.07,2.07A2.08,2.08,0,0,0,29.37,8.63Z"/><path class="cls-1" d="M20.15,11.29A8.71,8.71,0,1,0,28.86,20,8.73,8.73,0,0,0,20.15,11.29Zm0,14.29A5.58,5.58,0,1,1,25.73,20,5.59,5.59,0,0,1,20.15,25.58Z"/><path class="cls-1" d="M27.06,37.69H12.94A10.64,10.64,0,0,1,2.31,27.06V12.94A10.64,10.64,0,0,1,12.94,2.31H27.06A10.64,10.64,0,0,1,37.69,12.94V27.06A10.64,10.64,0,0,1,27.06,37.69Zm-14.12-32a7.3,7.3,0,0,0-7.3,7.3V27.06a7.3,7.3,0,0,0,7.3,7.3H27.06a7.3,7.3,0,0,0,7.3-7.3V12.94a7.3,7.3,0,0,0-7.3-7.3Z"/><rect class="cls-2" width="40" height="40"/></g></g></svg>