<svg xmlns="http://www.w3.org/2000/svg" viewBox="0 0 384.23 346"><defs><style>.cls-4{fill:#ba4b04}.cls-6{fill:#bc4e01}.cls-7{fill:#bb4c04}.cls-8{fill:#411b00}.cls-9{fill:#401b00}.cls-10{fill:#421b00}</style></defs><g id="Capa_2" data-name="Capa 2"><g id="Layer_1" data-name="Layer 1"><path d="M384.21.34v344.41c0 1-.23 1.25-1.24 1.25H.3V2.7C.3 0-.08.35 2.66.35zm-262.7 71.51c-.1-.13-.2-.12-.31 0H84.63c-.14-.09-.23 0-.26.11Q73.6 97.34 62.83 122.71c-1.7 4-3.54 8-5 12.08.18.43.51.25.8.2h33.74c1 0 1.9-.05 2.84-.07.16.05.22 0 .21-.16l8.78-21.47c3.67 4.87 7.18 9.54 10.71 14.21 1.88 2.48 3.78 4.93 5.67 7.4a1.06 1.06 0 00.95.06h81.72a2.34 2.34 0 001.68-.7l14.2-13.26 8.47-7.85c-.39 2.26-.73 4.14-1 6q-1.34 7.61-2.65 15.23c-.18.22-.26.42.11.51h32a1 1 0 00.94-.08c.38-.3.78-.59 1.15-.91l18.74-16.54c1.37-1.21 2.75-2.4 4.13-3.6a1.21 1.21 0 01.25 1.14c-.49 3.28-1.05 6.54-1.5 9.81s-1.21 6.63-1.45 10c0 .2.09.25.26.2h32.92c.89 0 1.17-.36 1.33-1.13.58-2.71 1.2-5.41 1.8-8.11q1.47-6.57 2.92-13.13 1.82-8.19 3.6-16.4c1.05-4.77 2.15-9.52 3.14-14.3.69-3.37 1.79-6.67 2-10.14-.09-.12-.19-.13-.29 0h-33.15a.38.38 0 00-.57 0c-.73.1-1.13.7-1.63 1.14l-24.89 22.04c-.42.37-.75.94-1.56.86q2.54-11.4 5.07-22.74c.23-.36.46-.72.07-1.12h-.09c-.08-.14-.17-.13-.27 0h-31.16a3.18 3.18 0 00-2.48 1q-16.8 16.91-33.66 33.74c-.24.23-.4.64-.88.43q7.2-21.29 14.45-42.57c.23-.67.61-.67 1.13-.63h53.7c1.2-.4.68-1.52.9-2.29a86.84 86.84 0 001.91-8.56c.08-.47.07-.57-.37-.53H129.07c-.53-.07-.55.39-.66.7-1.26 3.28-2.5 6.57-3.75 9.85-.11.29-.3.59.07.84a.17.17 0 00.29 0h50.96a.36.36 0 00.56 0h.5l.05.76c-.07.22-.12.43-.2.64q-10 25.35-20 50.71c-.55 1.4-1.13 2.8-1.75 4.33-.38-.44-.62-.69-.84-1-5.3-7-10.58-13.95-15.92-20.89-.68-.88-.64-1.32.22-2q11.6-9.57 23.13-19.21l5.6-4.7c.23-.2.78-.45 0-.66h-1.9a.37.37 0 00-.56 0h-21.68a.56.56 0 00-.82.08L112 96.18l-.35-.28 9.88-23.44c.2-.17.32-.36.06-.58z" fill="#fe6600"/><path d="M384.21.34H2.66C-.08.35.3 0 .3 2.7V346c-.09-.05-.29.14-.28-.13s0-.72 0-1.09Q0 173 0 1.29C0 .27.23 0 1.25 0Q192.11.09 383 .09c.38 0 .91-.32 1.21.25z" fill="#feb17f"/><path d="M256 135h-32l-.11-.51q1.32-7.62 2.65-15.23c.32-1.89.66-3.77 1-6l-8.41 7.74-14.24 13.31a2.34 2.34 0 01-1.68.7h-81.72a1 1 0 00-.95-.06c-1.89-2.47-3.79-4.92-5.67-7.4-3.53-4.67-7-9.34-10.71-14.21l-8.78 21.47-.21.16c-.94 0-1.89.07-2.84.07H58.59l-.8-.2c1.5-4.1 3.34-8.06 5-12.08q10.8-25.44 21.58-50.82l.26-.11h36.97l-.06.58-9.88 23.49.35.28 30.36-24.27.82-.08h24.13c.79.21.24.46 0 .66l-5.6 4.7q-11.55 9.62-23.12 19.21c-.86.71-.9 1.15-.22 2 5.34 6.94 10.62 13.92 15.92 20.89.22.28.46.53.84 1 .62-1.53 1.2-2.93 1.75-4.33q10-25.35 20-50.71c.08-.21.13-.42.2-.64s.53-.54-.05-.76h-52.29c-.37-.25-.18-.55-.07-.84 1.25-3.28 2.49-6.57 3.75-9.85.11-.31.13-.77.66-.7a.65.65 0 00.84 0h141.75a.63.63 0 00.84 0c.44 0 .45.06.37.53a86.84 86.84 0 01-1.89 8.58c-.22.77.3 1.89-.9 2.29h-53.69c-.52 0-.9 0-1.13.63Q208.05 85.77 200.8 107c.48.21.64-.2.88-.43q16.84-16.86 33.66-33.74a3.18 3.18 0 012.48-1h31.52c0 .38 0 .75-.07 1.12l-5.07 22.74c.81.08 1.14-.49 1.56-.86L290.65 73c.5-.44.9-1 1.63-1.14h33.92c-.22 3.47-1.32 6.77-2 10.14-1 4.78-2.09 9.53-3.14 14.3l-3.6 16.4q-1.44 6.57-2.92 13.13c-.6 2.7-1.22 5.4-1.8 8.11-.16.77-.44 1.14-1.33 1.13q-16.45-.06-32.92 0l-.26-.2c.24-3.36 1-6.65 1.45-10s1-6.53 1.5-9.81a1.21 1.21 0 00-.25-1.14c-1.38 1.2-2.76 2.39-4.13 3.6L258.05 134c-.37.32-.77.61-1.15.91a1 1 0 00-.9.09z" fill="#010000"/><path class="cls-4" d="M269.27 73c0-.37.05-.74.07-1.12.39.4.16.76-.07 1.12z"/><path d="M129.91 52.46a.65.65 0 01-.84 0zm142.61.01a.63.63 0 01-.84 0z" fill="#491900"/><path class="cls-6" d="M177 63.85c.58.22.24.5.05.76z"/><path class="cls-7" d="M143.19 71.83l-.82.08a.56.56 0 01.82-.08z"/><path class="cls-8" d="M57.79 134.79l.8.2c-.29.01-.59.23-.8-.2z"/><path class="cls-9" d="M120.54 134.93a1 1 0 01.95.06 1.06 1.06 0 01-.95-.06z"/><path class="cls-10" d="M256 135a1 1 0 01.94-.08 1 1 0 01-.94.08z"/><path class="cls-6" d="M176 63.85h.56a.36.36 0 01-.56 0z"/><path class="cls-7" d="M165.42 71.83h-.56a.37.37 0 01.56 0zm127.43 0h-.57a.38.38 0 01.57 0zm-171.31.63l.06-.58c.26.22.14.41-.06.58z"/><path class="cls-10" d="M223.9 134.44l.11.51c-.37-.09-.29-.29-.11-.51z"/><path class="cls-6" d="M124.73 63.86h.27a.17.17 0 01-.27 0z"/><path d="M216.38 63.85zm52.62 0zm.78 0z" fill="#bc4e00"/><path class="cls-7" d="M84.63 71.83l-.26.11c.03-.16.12-.2.26-.11zm35.52 0zm1.36.02h-.31c.11-.12.21-.13.31 0zm45.81-.02z"/><path class="cls-4" d="M269.25 71.86h-.27c.1-.13.19-.14.27 0z"/><path class="cls-7" d="M326.2 71.83h-.29c.09-.13.2-.12.29 0z"/><path class="cls-8" d="M95.17 135l.21-.16c.01.1-.05.16-.21.16z"/><path class="cls-9" d="M278.22 134.79l.26.2c-.17.01-.27.01-.26-.2z"/></g></g></svg>