<svg xmlns="http://www.w3.org/2000/svg" viewBox="0 0 40 40"><g data-name="Capa 2"><g data-name="Layer 1"><path d="M2.35 37.69l2.54-9.46a17.55 17.55 0 117 6.91zm10-6.09l.6.35a14.2 14.2 0 10-4.87-4.82l.37.61L7 33z" fill="#000"/><path d="M26.67 22.21a2.92 2.92 0 00-2.5-.56c-.65.27-1.06 1.28-1.49 1.8a.62.62 0 01-.8.18 11.33 11.33 0 01-5.66-4.85.68.68 0 01.09-.94 3.85 3.85 0 001-1.67 3.73 3.73 0 00-.46-2A4.69 4.69 0 0015.42 12a2 2 0 00-2.17.32 4.41 4.41 0 00-1.53 3.49 5.1 5.1 0 00.14 1.1 9.19 9.19 0 001.06 2.45A18.91 18.91 0 0014 21.05a17.19 17.19 0 004.81 4.46 14.49 14.49 0 003 1.43 6.64 6.64 0 003.49.55 4.23 4.23 0 003.17-2.35 2.09 2.09 0 00.14-1.21c-.15-.82-1.27-1.32-1.94-1.72z" fill-rule="evenodd" fill="#000"/><path fill="none" d="M0 0h40v40H0z"/></g></g></svg>