<svg xmlns="http://www.w3.org/2000/svg" viewBox="0 0 40 40"><defs><style>.cls-1,.cls-2{fill:#fff;}.cls-2{fill-rule:evenodd;}.cls-3{fill:none;}</style></defs><g id="Capa_2" data-name="Capa 2"><g id="Layer_1" data-name="Layer 1"><path class="cls-1" d="M2.35,37.69l2.54-9.46a17.55,17.55,0,1,1,7,6.91Zm10-6.09.6.35a14.2,14.2,0,1,0-4.87-4.82l.37.61L7,33Z"/><path class="cls-2" d="M26.67,22.21a2.92,2.92,0,0,0-2.5-.56c-.65.27-1.06,1.28-1.49,1.8a.62.62,0,0,1-.8.18,11.33,11.33,0,0,1-5.66-4.85.68.68,0,0,1,.09-.94,3.85,3.85,0,0,0,1-1.67,3.73,3.73,0,0,0-.46-2A4.69,4.69,0,0,0,15.42,12a2,2,0,0,0-2.17.32,4.41,4.41,0,0,0-1.53,3.49,5.1,5.1,0,0,0,.14,1.1,9.19,9.19,0,0,0,1.06,2.45A18.91,18.91,0,0,0,14,21.05a17.19,17.19,0,0,0,4.81,4.46,14.49,14.49,0,0,0,3,1.43,6.64,6.64,0,0,0,3.49.55,4.23,4.23,0,0,0,3.17-2.35,2.09,2.09,0,0,0,.14-1.21C28.46,23.11,27.34,22.61,26.67,22.21Z"/><rect class="cls-3" width="40" height="40"/></g></g></svg>