<svg xmlns="http://www.w3.org/2000/svg" viewBox="0 0 40 40"><defs><style>.cls-1{fill:#fff;}.cls-2{fill:none;}</style></defs><g id="Capa_2" data-name="Capa 2"><g id="Layer_1" data-name="Layer 1"><path class="cls-1" d="M38,15.31a7.89,7.89,0,0,0-7.89-7.89H9.91A7.89,7.89,0,0,0,2,15.31v9.38a7.89,7.89,0,0,0,7.89,7.89H30.09A7.89,7.89,0,0,0,38,24.69ZM26.11,20.7l-9,4.48c-.36.19-1.56-.07-1.56-.47V15.52c0-.4,1.21-.66,1.57-.46l8.66,4.71C26.1,20,26.48,20.5,26.11,20.7Z"/><rect class="cls-2" width="40" height="40"/></g></g></svg>