<svg xmlns="http://www.w3.org/2000/svg" viewBox="0 0 265.29 76.41"><defs><style>.cls-1{fill:#fff;fill-rule:evenodd;}</style></defs><g id="Capa_2" data-name="Capa 2"><g id="Layer_1" data-name="Layer 1"><polygon class="cls-1" points="0 76.41 37.49 76.41 46.62 55.27 63.92 76.41 143.7 76.41 168.21 54.79 163.88 76.41 195.6 76.41 221.07 55.27 217.71 76.41 251.35 76.41 265.29 17.3 231.65 17.3 204.25 39.89 209.54 17.3 176.86 17.3 141.29 50.46 156.19 10.09 210.5 10.09 212.9 0 70.65 0 66.8 10.09 118.71 10.09 97.08 62 79.3 40.37 109.58 17.3 84.1 17.3 53.35 40.37 63.92 17.3 26.91 17.3 0 76.41 0 76.41"/></g></g></svg>